<svg xmlns="http://www.w3.org/2000/svg" fill="none" viewBox="20.86 4.3 464.78 443.27">
<path d="M458.879 113.734C505.309 166.542 485.08 243.422 445.499 294.788C385.822 372.274 239.349 413.734 144.48 351.666C72.4871 304.564 23.2771 219.71 48.6269 145.006C68.5769 86.1832 130.182 23.3545 205.886 6.98407C265.257 -5.89593 268.157 30.3355 295.674 56.0182C306.993 66.5798 326.264 66.773 342.091 67.8678C366.976 69.5809 391.222 71.5773 413.526 81.5206C432.797 90.0858 447.72 101.098 458.879 113.734Z" fill="#B67094"/>
<path opacity="0.7" d="M458.879 113.734C505.309 166.542 485.08 243.422 445.499 294.788C385.822 372.274 239.349 413.734 144.48 351.666C72.4871 304.564 23.2771 219.71 48.6269 145.006C68.5769 86.1832 130.182 23.3545 205.886 6.98407C265.257 -5.89593 268.157 30.3355 295.674 56.0182C306.993 66.5798 326.264 66.773 342.091 67.8678C366.976 69.5809 391.222 71.5773 413.526 81.5206C432.797 90.0858 447.72 101.098 458.879 113.734Z" fill="white"/>
<path d="M252.263 447.567C380.066 447.567 483.67 436.732 483.67 423.366C483.67 409.999 380.066 399.164 252.263 399.164C124.461 399.164 20.8564 409.999 20.8564 423.366C20.8564 436.732 124.461 447.567 252.263 447.567Z" fill="#B67094"/>
<path opacity="0.5" d="M252.263 447.567C380.066 447.567 483.67 436.732 483.67 423.366C483.67 409.999 380.066 399.164 252.263 399.164C124.461 399.164 20.8564 409.999 20.8564 423.366C20.8564 436.732 124.461 447.567 252.263 447.567Z" fill="white"/>
<path d="M365.526 48.9844H136.566V214.428H365.526V48.9844Z" fill="#263238" stroke="#263238" stroke-linecap="round" stroke-linejoin="round"/>
<path d="M359.035 54.2812H143.083V209.125H359.035V54.2812Z" fill="white" stroke="#263238" stroke-linecap="round" stroke-linejoin="round"/>
<path d="M164.576 76.4445L162.794 96.0092L180.523 97.7222L182.292 75.4141L164.576 76.4445Z" fill="white" stroke="#263238" stroke-linecap="round" stroke-linejoin="round"/>
<path d="M219.864 110.07V124.496L236.875 125.861L237.58 111.796L219.864 110.07Z" fill="white" stroke="#263238" stroke-linecap="round" stroke-linejoin="round"/>
<path d="M214.943 86.25V100.663L231.954 102.041L232.659 87.963L214.943 86.25Z" fill="white" stroke="#263238" stroke-linecap="round" stroke-linejoin="round"/>
<path d="M195.246 140.586V154.999L212.257 156.377L212.975 142.299L195.246 140.586Z" fill="white" stroke="#263238" stroke-linecap="round" stroke-linejoin="round"/>
<path d="M187.958 74.3845L239.363 67.8672L239.708 75.7626L190.445 82.2799L187.958 74.3845Z" fill="#B67094" stroke="#263238" stroke-linecap="round" stroke-linejoin="round"/>
<path d="M246.198 178.297L297.51 185.316L295.674 193.019L246.411 186.553L246.198 178.297Z" fill="white" stroke="#263238" stroke-linecap="round" stroke-linejoin="round"/>
<path d="M184.42 104.241V123.471H201.79L201.072 103.906L184.42 104.241Z" fill="#B67094" stroke="#263238" stroke-linecap="round" stroke-linejoin="round"/>
<path d="M326.185 128.082V147.299H343.554L342.836 127.734L326.185 128.082Z" fill="#B67094" stroke="#263238" stroke-linecap="round" stroke-linejoin="round"/>
<path d="M270.191 68.1983V93.2628L287.202 95.3107V67.5156L270.191 68.1983Z" fill="#B67094" stroke="#263238" stroke-linecap="round" stroke-linejoin="round"/>
<path d="M319.096 93.9466L300.316 91.2031L298.188 110.072L315.904 112.829L319.096 93.9466Z" fill="white" stroke="#263238" stroke-linecap="round" stroke-linejoin="round"/>
<path d="M280.818 133.076L289.33 154.354L309.892 144.745L299.252 126.211L280.818 133.076Z" fill="#B67094" stroke="#263238" stroke-linecap="round" stroke-linejoin="round"/>
<path d="M240.771 94.2954L245.732 139.942L268.063 138.229L263.807 91.5391L240.771 94.2954Z" fill="white" stroke="#263238" stroke-linecap="round" stroke-linejoin="round"/>
<path d="M172.37 137.531L168.819 163.278L185.125 164.657L189.022 138.562L172.37 137.531Z" fill="#B67094" stroke="#263238" stroke-linecap="round" stroke-linejoin="round"/>
<path d="M238.843 138.297L220.769 140.705L225.37 166.105L244.509 163.014L238.843 138.297Z" fill="#B67094" stroke="#263238" stroke-linecap="round" stroke-linejoin="round"/>
<path d="M336.28 117.504C335.774 114.44 334.552 111.528 332.709 108.99C330.865 106.452 328.447 104.355 325.64 102.859" stroke="#263238" stroke-linecap="round" stroke-linejoin="round"/>
<path d="M324.509 106.662L323.392 101.227L332.356 101.78" stroke="#263238" stroke-linecap="round" stroke-linejoin="round"/>
<path d="M284.197 74.125L274.115 87.1338" stroke="#263238" stroke-linecap="round" stroke-linejoin="round"/>
<path d="M274.115 75.2109L284.197 84.974" stroke="#263238" stroke-linecap="round" stroke-linejoin="round"/>
<path d="M166.611 103.406C166.919 106.957 168.48 110.296 171.03 112.865C173.58 115.433 176.965 117.073 180.616 117.51" stroke="#263238" stroke-linecap="round" stroke-linejoin="round"/>
<path d="M178.927 113.164L183.409 118.587L175.017 120.75" stroke="#263238" stroke-linecap="round" stroke-linejoin="round"/>
<path d="M264.606 80.0883C264.606 80.0883 246.119 76.2243 237.727 87.6747" stroke="#263238" stroke-linecap="round" stroke-linejoin="round"/>
<path d="M235.492 84.4141L234.92 91.4723L243.326 88.2137" stroke="#263238" stroke-linecap="round" stroke-linejoin="round"/>
<path d="M357.134 406.209C357.134 406.209 340.762 414.685 340.576 416.513C340.39 418.342 350.657 418.355 358.265 417.428C365.872 416.501 372.536 415.406 371.392 412.276C370.248 409.146 358.092 405.836 358.092 405.836L357.134 406.209Z" fill="#B67094" stroke="#263238" stroke-linecap="round" stroke-linejoin="round"/>
<path d="M418.966 413.953C418.966 413.953 425.802 422.235 426.573 426.472C427.345 430.71 423.528 430.337 415.534 426.666C410.874 424.585 406.821 421.416 403.737 417.444L418.966 413.953Z" fill="#B67094" stroke="#263238" stroke-linecap="round" stroke-linejoin="round"/>
<path d="M353.889 235.047C353.889 235.047 351.801 251.07 354.275 274.653C356.748 298.236 360.167 328.273 360.167 349.087C360.167 369.901 357.32 391.282 356.562 398.095C356.276 401.467 355.639 404.803 354.66 408.051C354.66 408.051 361.124 410.627 367.216 412.289C373.307 413.95 385.091 414.865 385.091 414.865C385.091 414.865 386.421 400.31 386.421 374.705C386.421 349.1 384.519 327.538 384.519 327.538C384.519 327.538 390.796 364.195 392.698 382.626C393.849 393.894 393.978 405.237 393.084 416.526C393.084 416.526 393.656 418.549 405.453 417.995C412.222 417.749 418.905 416.444 425.243 414.131C425.243 414.131 419.79 376.547 419.338 360.679C418.886 344.811 412.116 328.801 407.368 318.175C402.62 307.549 401.849 303.801 403.378 297.914C404.908 292.028 413.832 263.46 413.832 250.194C413.832 236.928 413.074 233.45 413.074 233.45C413.074 233.45 411.172 230.681 387.964 229.947C364.755 229.213 353.889 235.047 353.889 235.047Z" fill="#263238" stroke="#263238" stroke-linecap="round" stroke-linejoin="round"/>
<path d="M382.909 322.672C383.853 325.905 384.519 327.541 384.519 327.541" stroke="white" stroke-linecap="round" stroke-linejoin="round"/>
<path d="M376.725 244.758C376.725 244.758 375.967 280.126 378.241 298.931C379.019 305.564 380.214 312.145 381.819 318.637" stroke="white" stroke-linecap="round" stroke-linejoin="round"/>
<path d="M411.598 333.258C412.321 334.875 412.908 336.546 413.353 338.255" stroke="white" stroke-linecap="round" stroke-linejoin="round"/>
<path d="M410.546 249.023C409.774 257.452 408.419 265.822 406.49 274.075C401.888 293.678 397.738 305.721 398.204 310.139C398.563 313.578 405.811 321.834 410.347 330.554" stroke="white" stroke-linecap="round" stroke-linejoin="round"/>
<path d="M392.738 73.9704C392.738 73.9704 388.748 66.3712 397.738 59.8024C406.729 53.2336 421.492 60.4979 422.742 67.4145C423.993 74.3311 419.165 79.5217 421.133 83.1539C423.102 86.786 432.026 88.1642 436.668 93.4579C441.309 98.7516 443.091 107.626 440.418 112.997C437.745 118.368 432.558 122.683 435.776 125.967C438.995 129.251 447.201 136.001 447.201 143.432C447.201 150.864 440.232 158.644 434.34 161.593C428.448 164.543 417.742 160.55 412.196 157.613C406.649 154.677 402.021 146.021 403.63 137.894C405.24 129.767 411.304 129.084 408.458 124.589C405.612 120.094 400.239 116.861 402.739 112.482C405.24 108.102 408.804 104.87 408.272 101.07C407.74 97.2704 402.207 93.986 402.207 93.986C402.207 93.986 396.129 80.8355 394.879 78.2466C393.629 75.6577 392.738 73.9704 392.738 73.9704Z" fill="#263238" stroke="#263238" stroke-linecap="round" stroke-linejoin="round"/>
<path d="M401.476 74.548C401.476 74.548 404.056 65.3517 412.701 66.601C421.346 67.8504 414.031 77.4718 415.72 84.633C417.409 91.7943 434.726 91.3307 435.59 103.464C436.455 115.597 421.332 121.496 423.926 130.653C426.519 139.811 442.067 139.437 438.622 149.471C435.178 159.505 431.268 160.355 427.823 156.594" stroke="white" stroke-width="0.75" stroke-linecap="round" stroke-linejoin="round"/>
<path d="M411.811 97.9297C411.811 97.9297 424.339 102.528 423.9 109.225C423.461 115.923 410.946 118.01 415.694 128.043" stroke="white" stroke-width="0.75" stroke-linecap="round" stroke-linejoin="round"/>
<path d="M384.904 125.055C384.904 125.055 357.892 130.761 356.176 132.783C354.46 134.805 328.778 170.727 328.778 170.727L295.528 152.489L291.538 159.869L326.304 189.377L355.418 173.355L358.836 188.27C358.836 188.27 353.516 219.594 352.758 226.781C352 233.968 351.8 237.471 351.8 237.471C361.581 240.062 371.739 241.059 381.858 240.421C392.597 239.835 403.151 237.464 413.06 233.414C413.06 233.414 405.639 211.853 402.593 204.305C399.547 196.758 396.315 187.909 396.315 187.909L406.024 166.902L417.994 194.079L434.939 188.18C434.939 188.18 421.958 136.66 420.628 134.663C419.298 132.667 399.507 125.995 399.507 125.995L384.904 125.055Z" fill="#B67094" stroke="#263238" stroke-linecap="round" stroke-linejoin="round"/>
<path d="M359.408 152.697L356.282 142.586" stroke="#263238" stroke-linecap="round" stroke-linejoin="round"/>
<path d="M380.674 142.133C377.776 149.583 375.316 157.185 373.306 164.905C370.088 177.385 372.388 182.293 372.388 190.317C372.388 198.341 374.237 238.449 374.237 238.449" stroke="#263238" stroke-linecap="round" stroke-linejoin="round"/>
<path d="M355.418 173.324C355.418 173.324 351.615 162.453 352.559 159.504C353.503 156.554 359.036 153.244 359.408 152.69C359.781 152.136 362.268 146.25 362.268 146.25" stroke="#263238" stroke-linecap="round" stroke-linejoin="round"/>
<path d="M399.548 152.383L406.025 166.873L398.63 159.068" stroke="#263238" stroke-linecap="round" stroke-linejoin="round"/>
<path d="M386.234 121.547C386.234 121.547 380.715 122.475 379.385 124.497C378.055 126.519 371.205 141.073 371.205 141.073L383.946 135.741L391.926 146.238C391.926 146.238 402.394 127.627 402.566 126.158C402.739 124.69 396.103 120.633 395.531 120.633C394.959 120.633 386.234 121.547 386.234 121.547Z" fill="white" stroke="#263238" stroke-linecap="round" stroke-linejoin="round"/>
<path d="M382.817 120.441C383.124 124.123 383.124 127.823 382.817 131.505C382.245 135.369 380.343 140.895 381.287 140.714C382.231 140.534 393.842 128.002 395.372 125.426C396.901 122.85 397.074 116.023 397.074 116.023C397.074 116.023 387.764 121.369 382.817 120.441Z" fill="white" stroke="#263238" stroke-linecap="round" stroke-linejoin="round"/>
<path d="M405.772 98.0071C405.772 98.0071 407.022 82.1003 402.021 77.3991C397.02 72.6979 384.877 71.3455 377.735 77.5665C370.593 83.7876 373.453 104.202 374.53 109.908C375.607 115.614 381.313 122.865 385.782 122.698C390.25 122.531 396.129 117.16 397.752 115.434C399.374 113.708 400.412 108.865 400.412 108.865C400.412 108.865 405.599 106.959 406.49 104.022C406.941 101.995 406.688 99.8808 405.772 98.0071Z" fill="white" stroke="#263238" stroke-linecap="round" stroke-linejoin="round"/>
<path d="M381.699 95.0312C381.838 96.6378 381.491 98.2489 380.701 99.6681C379.438 101.368 377.922 101.613 378.174 102.592C378.427 103.571 380.954 104.369 380.954 104.369" stroke="#263238" stroke-linecap="round" stroke-linejoin="round"/>
<path d="M381.965 110.714C381.965 110.714 382.843 113.432 384.771 113.432C386.7 113.432 385.649 110.031 385.649 110.031C384.477 110.483 383.226 110.714 381.965 110.714Z" fill="#263238"/>
<path d="M380.355 109.929C380.355 109.929 384.133 111.63 386.646 109.195" stroke="#263238" stroke-linecap="round" stroke-linejoin="round"/>
<path d="M377.324 98.572C377.742 98.572 378.082 97.7531 378.082 96.743C378.082 95.7329 377.742 94.9141 377.324 94.9141C376.905 94.9141 376.565 95.7329 376.565 96.743C376.565 97.7531 376.905 98.572 377.324 98.572Z" fill="#263238"/>
<path d="M387.152 97.4774C387.152 98.4949 386.82 99.3064 386.408 99.3064C385.995 99.3064 385.649 98.4949 385.649 97.4774C385.649 96.4599 385.982 95.6484 386.408 95.6484C386.833 95.6484 387.152 96.4728 387.152 97.4774Z" fill="#263238"/>
<path d="M374.57 93.0813C374.715 92.714 374.933 92.378 375.212 92.0928C375.491 91.8075 375.826 91.5786 376.197 91.4194C376.568 91.2601 376.967 91.1736 377.373 91.1648C377.779 91.156 378.182 91.2252 378.56 91.3683" stroke="#263238" stroke-linecap="round" stroke-linejoin="round"/>
<path d="M383.88 91.1277C384.49 90.8925 385.147 90.7902 385.802 90.828C386.458 90.8657 387.097 91.0426 387.675 91.3462C388.252 91.6497 388.754 92.0724 389.144 92.5844C389.533 93.0964 389.802 93.6852 389.931 94.309" stroke="#263238" stroke-linecap="round" stroke-linejoin="round"/>
<path d="M402.021 77.4369C397.021 72.7614 384.878 71.3833 377.736 77.6043C376.359 78.9128 375.332 80.5263 374.743 82.3055C377.438 80.909 380.406 80.0754 383.455 79.8583C389.706 79.3302 395.957 83.4905 397.739 87.5863C399.521 91.6821 399.84 101.123 399.84 101.123C399.84 101.123 402.168 97.491 403.591 97.1433C403.996 97.047 404.423 97.0788 404.808 97.234C405.193 97.3893 405.517 97.6599 405.732 98.0062C405.732 98.0062 407.022 82.0994 402.021 77.4369Z" fill="#263238" stroke="#263238" stroke-linecap="round" stroke-linejoin="round"/>
<path d="M422.61 184.466L379.811 203.4L381.327 208.745C381.327 208.745 437.745 197.153 437.745 195.62C437.745 194.087 433.09 182.07 433.09 182.07" fill="#B67094"/>
<path d="M422.61 184.466L379.811 203.4L381.327 208.745C381.327 208.745 437.745 197.153 437.745 195.62C437.745 194.087 433.09 182.07 433.09 182.07" stroke="#263238" stroke-linecap="round" stroke-linejoin="round"/>
<path d="M368.545 179.071C369.514 180.499 370.199 182.089 370.567 183.759C371.564 187.263 372.775 197.992 373.227 200.722C373.679 203.453 378.454 216.706 378.454 216.706L375.036 217.492L363.146 183.36C363.146 183.36 364.728 177.899 368.545 179.071Z" fill="white" stroke="#263238" stroke-linecap="round" stroke-linejoin="round"/>
<path d="M340.802 188.472L351.841 225.142L376.565 219.243L366.87 183.32L340.802 188.472Z" fill="white" stroke="#263238" stroke-linecap="round" stroke-linejoin="round"/>
<path d="M340.801 188.471C340.801 188.471 338.54 189.605 338.54 187.454C338.54 185.303 339.551 184.53 341.971 184.337C344.392 184.144 360.698 181.027 364.515 179.455C368.332 177.884 368.505 179.069 368.505 179.069C367.819 179.534 367.293 180.188 366.994 180.945C366.695 181.703 366.638 182.53 366.829 183.319L340.801 188.471Z" fill="white" stroke="#263238" stroke-linecap="round" stroke-linejoin="round"/>
<path d="M379.81 203.404C379.81 203.404 370.859 201.562 370.287 201.562C369.715 201.562 358.689 209.123 358.689 209.123L359.634 212.253C360.323 212.405 361.029 212.465 361.735 212.433C363.251 212.433 368.771 212.06 368.771 212.06L361.349 213.85L361.921 215.138C361.921 215.138 372.189 213.296 373.532 213.103C374.876 212.91 381.326 208.685 381.326 208.685L379.81 203.404Z" fill="white" stroke="#263238" stroke-linecap="round" stroke-linejoin="round"/>
<path d="M293.201 145.505L285.021 142.698L275.884 136.477L275.126 138.138L282.441 145.982L279.315 152.873L285.593 157.484L291.299 160.42L295.488 152.499L293.201 145.505Z" fill="white" stroke="#263238" stroke-linecap="round" stroke-linejoin="round"/>
<path d="M295.103 151.765C295.103 151.765 294.158 145.325 292.828 143.844C291.224 142.364 289.503 141.007 287.681 139.787L285.593 136.477C285.593 136.477 284.449 136.657 284.449 137.584C284.901 139.539 285.538 141.449 286.351 143.29C286.846 144.563 287.556 145.747 288.453 146.793C288.453 146.793 287.123 149.743 287.881 151.585C288.526 152.908 289.429 154.097 290.541 155.088" fill="white"/>
<path d="M295.103 151.765C295.103 151.765 294.158 145.325 292.828 143.844C291.224 142.364 289.503 141.007 287.681 139.787L285.593 136.477C285.593 136.477 284.449 136.657 284.449 137.584C284.901 139.539 285.538 141.449 286.351 143.29C286.846 144.563 287.556 145.747 288.453 146.793C288.453 146.793 287.123 149.743 287.881 151.585C288.526 152.908 289.429 154.097 290.541 155.088" stroke="#263238" stroke-linecap="round" stroke-linejoin="round"/>
<path d="M280.14 142.555C280.14 142.555 276.336 152.498 276.908 153.245C277.48 153.992 282.614 155.448 283.186 154.894C283.758 154.34 286.803 147.166 286.803 147.166L280.14 142.555Z" fill="white" stroke="#263238" stroke-linecap="round" stroke-linejoin="round"/>
<path d="M411.052 240.203C411.052 240.203 411.052 241.62 410.905 244.183" stroke="white" stroke-linecap="round" stroke-linejoin="round"/>
<path d="M152.234 131.797C152.234 131.797 163.792 164.177 166.479 172.369C169.165 180.561 171.799 194.96 171.214 197.163C170.628 199.365 159.656 188.559 155.121 190.169C150.585 191.779 150.998 194.767 150.998 194.767L145.811 181.964L152.234 131.797Z" fill="#B67094" stroke="#263238" stroke-linecap="round" stroke-linejoin="round"/>
<path d="M149.906 183.424C149.906 183.424 155.878 176.984 162.661 178.388" stroke="#263238" stroke-linecap="round" stroke-linejoin="round"/>
<path d="M149.574 181.199C149.574 181.199 152.966 172.75 160.72 172.75" stroke="#263238" stroke-linecap="round" stroke-linejoin="round"/>
<path d="M156.57 201.158C156.57 201.158 152.021 198.956 150.997 196.766C149.973 194.577 150.159 187.364 152.846 185.174C155.533 182.985 163.792 183.371 165.853 184.17C167.915 184.968 170.801 189.966 172.051 192.967C173.301 195.968 173.288 199.96 171.626 201.558C170.978 202.281 170.146 202.827 169.213 203.143C168.28 203.46 167.278 203.535 166.306 203.361C164.43 202.962 156.57 201.158 156.57 201.158Z" fill="#B67094" stroke="#263238" stroke-linecap="round" stroke-linejoin="round"/>
<path d="M101.455 121.011C101.455 121.011 74.8549 135.179 73.3786 139.043C71.9023 142.907 90.6686 217.997 90.6686 217.997C90.9926 218.806 91.5575 219.504 92.2915 220.002C93.0256 220.499 93.8958 220.774 94.7916 220.792C97.8905 220.792 141.86 219.994 143.297 219.594C144.733 219.195 145.372 217.018 145.372 216.001C145.372 214.983 153.205 133.839 152.181 131.843C151.157 129.847 119.21 117.25 119.21 117.25L107.852 117.649L101.455 121.011Z" fill="#B67094" stroke="#263238" stroke-linecap="round" stroke-linejoin="round"/>
<path d="M105.79 110.21C103.366 112.203 101.14 114.411 99.1401 116.805C96.4801 120.205 97.9032 125.396 99.5524 129.195C101.202 132.995 106.362 143.595 106.362 143.595C106.362 143.595 118.133 133.201 118.758 132.802C119.383 132.402 136.912 135.996 136.912 135.996C136.912 135.996 134.851 125.396 128.866 117.41C122.881 109.425 116.271 107.608 113.597 107.415C110.924 107.222 105.79 110.21 105.79 110.21Z" fill="#B67094" stroke="#263238" stroke-linecap="round" stroke-linejoin="round"/>
<path d="M101.242 102.216C101.242 102.216 103.902 111.412 104.554 113.808C105.206 116.204 109.089 123.004 111.776 126.405C114.462 129.805 120.447 134.802 120.86 132.999C121.272 131.196 124.983 104.019 123.121 99.8203C121.259 95.6215 105.379 83.4241 101.455 85.6523C97.5315 87.8806 101.242 102.216 101.242 102.216Z" fill="white" stroke="#263238" stroke-linecap="round" stroke-linejoin="round"/>
<path d="M137.83 101.623C137.83 101.623 135.569 106.015 127.31 102.821C119.051 99.6264 115.539 95.0283 114.515 92.0272L112.76 86.8752C114.422 84.969 116.75 82.9339 116.577 81.2467C116.445 80.1581 116.019 79.1227 115.34 78.2456L126.898 73.0936C126.898 73.0936 130.196 71.7026 128.76 67.6969C127.323 63.6912 118.439 58.6809 106.881 62.5449C95.3234 66.4089 89.9502 75.631 92.3708 83.6295C94.7914 91.6279 102.279 104.237 102.279 104.237C102.279 104.237 105.165 105.242 106.615 103.838C108.065 102.434 106.203 97.0504 106.203 97.0504L106.854 96.5352C108.184 99.2915 111.43 105.667 112.401 107.844C113.638 110.639 114.05 112.635 119.21 113.241C124.371 113.846 137.578 117.04 138.814 112.635C140.051 108.23 137.83 101.623 137.83 101.623Z" fill="#263238" stroke="#263238" stroke-linecap="round" stroke-linejoin="round"/>
<path d="M109.9 77.1016C106.523 77.4877 103.311 78.7319 100.59 80.708C95.5762 84.1212 95.0176 87.148 95.0176 87.148L105.059 82.2922C105.059 82.2922 97.9835 88.2299 97.0791 89.8528C96.1747 91.4756 104.527 86.4267 104.527 86.4267L100.058 91.8363L105.458 89.8528" stroke="white" stroke-width="0.5" stroke-linecap="round" stroke-linejoin="round"/>
<path d="M108.477 77.0316C108.477 77.0316 113.424 79.8266 112.4 82.4284C111.376 85.0301 108.676 88.0183 108.889 88.8684C109.102 89.7184 114.874 102.869 117.135 105.059C119.396 107.248 134.89 109.064 137.165 106.862C139.439 104.659 135.515 92.771 132.616 85.043C129.717 77.315 127.668 70.875 127.668 70.875L108.477 77.0316Z" fill="white" stroke="#263238" stroke-linecap="round" stroke-linejoin="round"/>
<path d="M130.502 80.9141L128.254 83.3613L132.749 92.8667L128.533 95.0434" stroke="#263238" stroke-linecap="round" stroke-linejoin="round"/>
<path d="M123.612 87.3871C123.958 88.2243 123.838 89.0486 123.359 89.2289C122.881 89.4092 122.229 88.8812 121.883 88.0568C121.537 87.2325 121.657 86.3953 122.136 86.215C122.615 86.0347 123.28 86.5628 123.612 87.3871Z" fill="#263238"/>
<path d="M131.047 84.3413C131.392 85.1657 131.286 85.99 130.807 86.1703C130.328 86.3506 129.663 85.8354 129.318 84.9982C128.972 84.161 129.092 83.3496 129.57 83.1564C130.049 82.9632 130.714 83.5041 131.047 84.3413Z" fill="#263238"/>
<path d="M123.865 98.3516L129.079 98.8925" stroke="#263238" stroke-linecap="round" stroke-linejoin="round"/>
<path d="M123.679 84.2969H117.175" stroke="#263238" stroke-linecap="round" stroke-linejoin="round"/>
<path d="M108.198 99.4572C107.586 98.6587 104.9 93.2619 102.213 94.3052C99.5263 95.3485 100.777 99.7019 103.038 102.497C105.299 105.292 109.86 102.69 109.86 102.69" fill="white"/>
<path d="M108.198 99.4572C107.586 98.6587 104.9 93.2619 102.213 94.3052C99.5263 95.3485 100.777 99.7019 103.038 102.497C105.299 105.292 109.86 102.69 109.86 102.69" stroke="#263238" stroke-linecap="round" stroke-linejoin="round"/>
<path d="M79.1643 137.195C79.1643 137.195 73.8443 139.771 72.1419 142.798C70.4395 145.825 70.2932 152.188 70.905 154.789C71.5168 157.391 98.9813 190.364 98.9813 190.364L110.539 179.171L96.9198 146.392" fill="#B67094"/>
<path d="M79.1643 137.195C79.1643 137.195 73.8443 139.771 72.1419 142.798C70.4395 145.825 70.2932 152.188 70.905 154.789C71.5168 157.391 98.9813 190.364 98.9813 190.364L110.539 179.171L96.9198 146.392" stroke="#263238" stroke-linecap="round" stroke-linejoin="round"/>
<path d="M111.775 169.383C111.775 169.383 103.516 170.98 101.454 173.582C99.3928 176.183 94.2324 186.964 94.2324 191.961C94.2324 196.959 106.202 200.758 110.951 200.758C115.699 200.758 122.295 198.363 123.12 193.159C123.945 187.956 120.46 178.991 119.409 177.574C118.359 176.158 111.775 169.383 111.775 169.383Z" fill="#B67094" stroke="#263238" stroke-linecap="round" stroke-linejoin="round"/>
<path d="M121.871 115.213L123.733 102.023L132.604 102.217C132.604 102.217 133.641 103.015 132.816 103.621C131.992 104.226 127.244 104.818 127.244 104.818L127.031 107.214L133.428 106.416C134.151 107.421 134.774 108.491 135.29 109.61C135.503 110.408 133.854 115.612 133.854 115.612L132.191 116.011L131.58 113.216L128.693 114.414C128.693 114.414 128.068 121.215 127.443 121.807C126.259 122.679 125.019 123.479 123.733 124.203C123.733 124.203 121.458 180.772 121.458 183.374C121.458 190.367 117.122 192.969 112.148 193.562C107.174 194.154 104.301 189.775 103.689 186.168C103.078 182.562 121.871 115.213 121.871 115.213Z" fill="white" stroke="#263238" stroke-linecap="round" stroke-linejoin="round"/>
<path d="M67.6061 408.242C67.6061 408.242 49.6511 422.629 47.7891 425.437C45.9271 428.245 50.6752 428.232 53.5746 427.433C56.474 426.635 61.5546 425.836 65.1323 423.428C67.3923 421.865 69.5305 420.143 71.5296 418.276L71.7291 421.071C71.7291 421.071 75.0408 420.066 75.2403 419.474C75.4398 418.881 76.3176 412.48 76.3176 412.48L67.6061 408.242Z" fill="#B67094" stroke="#263238" stroke-linecap="round" stroke-linejoin="round"/>
<path d="M168.128 408.242C168.128 408.242 186.083 422.629 187.931 425.437C189.78 428.245 185.045 428.232 182.159 427.433C179.273 426.635 174.113 425.836 170.601 423.428C168.338 421.869 166.2 420.146 164.204 418.276L163.991 421.071C163.991 421.071 160.693 420.066 160.48 419.474C160.267 418.881 159.416 412.48 159.416 412.48L168.128 408.242Z" fill="#B67094" stroke="#263238" stroke-linecap="round" stroke-linejoin="round"/>
<path d="M166.558 362.673C166.358 354.069 159.988 340.88 159.988 340.274C159.988 339.669 150.824 260.921 150.824 260.921L145.038 217.953L117.454 218.327L89.8567 217.953L84.0845 260.921C84.0845 260.921 74.9208 339.682 74.9208 340.274C74.9208 340.867 68.5368 354.069 68.2708 362.673C68.0048 371.277 66.0098 409.44 66.0098 409.44L76.3705 412.441C76.3705 412.441 94.8974 350.875 97.8766 339.025C100.856 327.176 106.641 298.453 108.836 287.66C111.03 276.866 117.002 259.478 117.002 259.478L117.507 259.362L117.999 259.478C117.999 259.478 123.984 276.866 126.166 287.66C128.347 298.453 134.146 327.24 137.125 339.025C140.104 350.81 158.644 412.441 158.644 412.441L169.005 409.44C169.005 409.44 166.757 371.264 166.558 362.673Z" fill="#263238" stroke="#263238" stroke-linecap="round" stroke-linejoin="round"/>
<path d="M129.717 243.586L120.514 255.32" stroke="white" stroke-linecap="round" stroke-linejoin="round"/>
<path d="M95.8018 229.047L109.86 240.781" stroke="white" stroke-linecap="round" stroke-linejoin="round"/>
<path d="M93.3818 232.328L103.556 238.897" stroke="white" stroke-linecap="round" stroke-linejoin="round"/>
<path d="M121.963 221.539L116.63 234.213L121.484 237.961L119.064 245.47" stroke="white" stroke-linecap="round" stroke-linejoin="round"/>
<path d="M166.053 206.956C166.053 206.956 170.189 200.516 169.152 196.369C168.115 192.222 161.731 188.77 156.77 190.367C151.809 191.964 151.609 198.365 151.609 202.165C151.609 205.965 149.747 222.554 149.747 222.554L142.525 234.545L148.098 240.741C148.098 240.741 153.884 230.14 158.219 223.147C161.268 217.959 163.887 212.545 166.053 206.956Z" fill="white" stroke="#263238" stroke-linecap="round" stroke-linejoin="round"/>
<path d="M148.922 224.742L140.49 228.941L134.718 236.94L135.742 237.944C137.128 237.045 138.576 236.24 140.078 235.536C141.94 234.737 145.238 233.539 145.238 233.539" fill="white"/>
<path d="M148.922 224.742L140.49 228.941L134.718 236.94L135.742 237.944C137.128 237.045 138.576 236.24 140.078 235.536C141.94 234.737 145.238 233.539 145.238 233.539" stroke="#263238" stroke-linecap="round" stroke-linejoin="round"/>
</svg>