<svg xmlns="http://www.w3.org/2000/svg" width="24.367" height="24.367" viewBox="0 0 24.367 24.367">
  <defs>
    <style>
      .cls-1 {
        fill: #4460a0;
        fill-rule: evenodd;
      }
    </style>
  </defs>
  <g id="Icons" transform="translate(0)">
    <g id="Color-" transform="translate(0)">
      <path id="Facebook" class="cls-1" d="M213.015,184.367h-11.67A1.345,1.345,0,0,1,200,183.022V161.345A1.345,1.345,0,0,1,201.345,160h21.677a1.345,1.345,0,0,1,1.345,1.345v21.677a1.345,1.345,0,0,1-1.345,1.345h-6.21v-9.436h3.168l.474-3.677h-3.642v-2.348c0-1.065.3-1.79,1.822-1.79h1.947v-3.289a26.078,26.078,0,0,0-2.837-.145c-2.808,0-4.73,1.714-4.73,4.861v2.712H209.84v3.677h3.175v9.436Z" transform="translate(-200 -160)"/>
    </g>
  </g>
</svg>
