<svg xmlns="http://www.w3.org/2000/svg" xmlns:xlink="http://www.w3.org/1999/xlink" width="24.367" height="24.367" viewBox="0 0 24.367 24.367">
  <defs>
    <style>
      .cls-1 {
        fill: url(#radial-gradient);
      }

      .cls-2 {
        fill: url(#radial-gradient-2);
      }

      .cls-3 {
        fill: #fff;
      }
    </style>
    <radialGradient id="radial-gradient" cx="0.065" cy="0.978" r="1.27" gradientTransform="translate(0)" gradientUnits="objectBoundingBox">
      <stop offset="0.09" stop-color="#fa8f21"/>
      <stop offset="0.78" stop-color="#d82d7e"/>
    </radialGradient>
    <radialGradient id="radial-gradient-2" cx="0.693" cy="0.946" r="1.117" gradientTransform="translate(0)" gradientUnits="objectBoundingBox">
      <stop offset="0.64" stop-color="#8c3aaa" stop-opacity="0"/>
      <stop offset="1" stop-color="#8c3aaa"/>
    </radialGradient>
  </defs>
  <g id="instagram-2-1-logo-svgrepo-com" transform="translate(0)">
    <path id="Path_8" data-name="Path 8" class="cls-1" d="M6.179,24.281a8.2,8.2,0,0,1-2.76-.511A4.618,4.618,0,0,1,1.71,22.658,4.582,4.582,0,0,1,.6,20.949a8.2,8.2,0,0,1-.511-2.76C.014,16.623,0,16.153,0,12.184S.016,7.747.086,6.179A8.25,8.25,0,0,1,.6,3.419a4.635,4.635,0,0,1,1.112-1.71A4.588,4.588,0,0,1,3.418.6,8.2,8.2,0,0,1,6.178.086C7.745.014,8.216,0,12.183,0s4.438.016,6.006.086A8.25,8.25,0,0,1,20.949.6a4.6,4.6,0,0,1,1.709,1.112,4.6,4.6,0,0,1,1.112,1.709,8.2,8.2,0,0,1,.511,2.76c.072,1.568.086,2.037.086,6.006s-.014,4.438-.086,6.006a8.241,8.241,0,0,1-.511,2.76,4.921,4.921,0,0,1-2.821,2.82,8.2,8.2,0,0,1-2.76.511c-1.566.072-2.037.086-6.006.086s-4.438-.014-6-.086" transform="translate(0 0)"/>
    <path id="Path_9" data-name="Path 9" class="cls-2" d="M6.179,24.281a8.2,8.2,0,0,1-2.76-.511A4.618,4.618,0,0,1,1.71,22.658,4.582,4.582,0,0,1,.6,20.949a8.2,8.2,0,0,1-.511-2.76C.014,16.623,0,16.153,0,12.184S.016,7.747.086,6.179A8.25,8.25,0,0,1,.6,3.419a4.635,4.635,0,0,1,1.112-1.71A4.588,4.588,0,0,1,3.418.6,8.2,8.2,0,0,1,6.178.086C7.745.014,8.216,0,12.183,0s4.438.016,6.006.086A8.25,8.25,0,0,1,20.949.6a4.6,4.6,0,0,1,1.709,1.112,4.6,4.6,0,0,1,1.112,1.709,8.2,8.2,0,0,1,.511,2.76c.072,1.568.086,2.037.086,6.006s-.014,4.438-.086,6.006a8.241,8.241,0,0,1-.511,2.76,4.921,4.921,0,0,1-2.821,2.82,8.2,8.2,0,0,1-2.76.511c-1.566.072-2.037.086-6.006.086s-4.438-.014-6-.086" transform="translate(0 0)"/>
    <path id="Path_10" data-name="Path 10" class="cls-3" d="M441.885,448.572a3.017,3.017,0,1,1,3.017,3.018,3.017,3.017,0,0,1-3.017-3.018m-1.631,0a4.648,4.648,0,1,0,4.648-4.648,4.648,4.648,0,0,0-4.648,4.648m8.394-4.833a1.086,1.086,0,1,0,1.087-1.086h0a1.087,1.087,0,0,0-1.086,1.086m-7.4,12.2a5,5,0,0,1-1.681-.311,3,3,0,0,1-1.718-1.718,5,5,0,0,1-.311-1.681c-.044-.954-.053-1.241-.053-3.658s.01-2.7.053-3.658a5.037,5.037,0,0,1,.311-1.681,3,3,0,0,1,1.718-1.718,5,5,0,0,1,1.681-.311c.954-.044,1.241-.053,3.657-.053s2.7.009,3.658.053a5.038,5.038,0,0,1,1.681.311,3,3,0,0,1,1.718,1.718,5,5,0,0,1,.311,1.681c.044.955.053,1.241.053,3.658s-.009,2.7-.053,3.658a5.021,5.021,0,0,1-.311,1.681,3,3,0,0,1-1.718,1.718,5,5,0,0,1-1.681.311c-.954.044-1.241.053-3.658.053s-2.7-.009-3.657-.053m-.075-16.366a6.638,6.638,0,0,0-2.2.42,4.628,4.628,0,0,0-2.648,2.648,6.64,6.64,0,0,0-.42,2.2c-.045.965-.055,1.274-.055,3.732s.01,2.767.055,3.732a6.64,6.64,0,0,0,.42,2.2,4.628,4.628,0,0,0,2.648,2.648,6.643,6.643,0,0,0,2.2.42c.966.044,1.274.055,3.732.055s2.767-.01,3.732-.055a6.639,6.639,0,0,0,2.2-.42,4.628,4.628,0,0,0,2.648-2.648,6.623,6.623,0,0,0,.42-2.2c.044-.966.054-1.274.054-3.732s-.01-2.767-.054-3.732a6.638,6.638,0,0,0-.42-2.2A4.63,4.63,0,0,0,450.833,440a6.631,6.631,0,0,0-2.2-.42c-.965-.044-1.274-.055-3.732-.055s-2.767.01-3.733.055" transform="translate(-432.693 -436.337)"/>
  </g>
</svg>
