<svg xmlns="http://www.w3.org/2000/svg" width="24.921" height="24.921" viewBox="0 0 24.921 24.921">
  <defs>
    <style>
      .cls-1 {
        fill: #0a66c2;
      }
    </style>
  </defs>
  <path id="linkedin-svgrepo-com" class="cls-1" d="M23.234,23.234H19.542V17.451c0-1.379-.025-3.155-1.921-3.155-1.923,0-2.218,1.5-2.218,3.053v5.885H11.711V11.341h3.545v1.626h.05a3.893,3.893,0,0,1,3.5-1.921c3.742,0,4.434,2.461,4.434,5.665l0,6.521ZM7.545,9.715A2.142,2.142,0,1,1,9.688,7.574,2.154,2.154,0,0,1,7.545,9.715ZM9.391,23.234h-3.7V11.341h3.7ZM25.072,2H3.838A1.828,1.828,0,0,0,2,3.8V25.122a1.828,1.828,0,0,0,1.838,1.8H25.074a1.832,1.832,0,0,0,1.846-1.8V3.8A1.828,1.828,0,0,0,25.074,2Z" transform="translate(-2 -2)"/>
</svg>
