<svg id="twitter-4-logo-svgrepo-com" xmlns="http://www.w3.org/2000/svg" width="24.921" height="24.921" viewBox="0 0 24.921 24.921">
  <defs>
    <style>
      .cls-1 {
        fill: #6ebedf;
      }

      .cls-2 {
        fill: #81c7e8;
      }

      .cls-3, .cls-4 {
        fill: #fff;
      }

      .cls-3 {
        opacity: 0.5;
      }
    </style>
  </defs>
  <path id="Path_4" data-name="Path 4" class="cls-1" d="M0,4.473V20.448a4.479,4.479,0,0,0,4.473,4.473H20.448a4.479,4.479,0,0,0,4.473-4.473V4.473A4.479,4.479,0,0,0,20.448,0H4.473A4.479,4.479,0,0,0,0,4.473Z" transform="translate(0 0)"/>
  <path id="Path_5" data-name="Path 5" class="cls-2" d="M.015,8.456a42.141,42.141,0,0,0,12.532,1.755A42.343,42.343,0,0,0,24.934,8.5V4.374A4.481,4.481,0,0,0,21.155.029,4.293,4.293,0,0,0,20.666,0H4.235c-.11,0-.22.006-.328.014A4.48,4.48,0,0,0,.015,4.448Z" transform="translate(-0.014 0)"/>
  <path id="Path_6" data-name="Path 6" class="cls-3" d="M10.16,13.888a3.735,3.735,0,0,1,3.734-3.734H28.527a3.735,3.735,0,0,1,3.734,3.734V28.527a3.732,3.732,0,0,1-3.734,3.735H13.894a3.732,3.732,0,0,1-3.734-3.735Zm-.838-.3V28.831A4.273,4.273,0,0,0,13.59,33.1H28.831A4.273,4.273,0,0,0,33.1,28.831V13.59a4.273,4.273,0,0,0-4.268-4.268H13.59A4.273,4.273,0,0,0,9.322,13.59Z" transform="translate(-8.75 -8.75)"/>
  <path id="Path_7" data-name="Path 7" class="cls-4" d="M50.83,95.963a10.427,10.427,0,0,1,2.305-4.2c.667-.7,1.011-.916.619-.15a4.177,4.177,0,0,1,.615-.421c1.081-.51,1-.082.26.376,2.033-.727,1.962.2-.188.66a4.318,4.318,0,0,1,4.164,3.531c.074.329-.015.3.323.358a4.275,4.275,0,0,0,2.081-.091c-.072.492-.722.812-1.737,1.023-.376.078-.453.058,0,.159a6.949,6.949,0,0,0,1.831.126,3.031,3.031,0,0,1-2.333.9,8.067,8.067,0,0,1-3.893,4.984c-4.279,2.429-10.508,2.076-13.632-2.338a5.4,5.4,0,0,0,7.341-.279c-1.477,0-1.86-1.106-.689-1.7a2.46,2.46,0,0,1-2.228-1c-.157-.241-.159-.26.1-.445a2.1,2.1,0,0,1,1.062-.325A2.758,2.758,0,0,1,44.735,95.4c-.08-.266-.093-.253.178-.321a4.945,4.945,0,0,1,.911-.118A3.048,3.048,0,0,1,44.246,93c-.129-.7,0-.52.528-.32,2.341.9,4.675,1.858,6.057,3.282Z" transform="translate(-38.712 -85.378)"/>
</svg>
