<svg id="youtube-youtube-svgrepo-com" xmlns="http://www.w3.org/2000/svg" width="32.455" height="23.058" viewBox="0 0 32.455 23.058">
  <defs>
    <style>
      .cls-1 {
        fill: #d8362a;
      }

      .cls-2 {
        fill: #fff;
      }
    </style>
  </defs>
  <path id="Path_11" data-name="Path 11" class="cls-1" d="M32.119,66.771a7.387,7.387,0,0,0-1.287-3.249,4.447,4.447,0,0,0-3.246-1.363c-4.532-.314-11.359-.367-11.359-.367h0s-6.827.052-11.359.367a4.681,4.681,0,0,0-3.246,1.363A6.716,6.716,0,0,0,.336,66.771,49.145,49.145,0,0,0,0,72.117V74.58a47.568,47.568,0,0,0,.336,5.293,7.387,7.387,0,0,0,1.287,3.249A5.579,5.579,0,0,0,5.2,84.537c2.574.262,11.023.314,11.023.314s6.827,0,11.359-.367a4.681,4.681,0,0,0,3.246-1.363,7.386,7.386,0,0,0,1.287-3.249,48.83,48.83,0,0,0,.336-5.293V72.117a49.145,49.145,0,0,0-.336-5.345" transform="translate(0 -61.793)"/>
  <path id="Path_12" data-name="Path 12" class="cls-2" d="M194.207,166.841v9.941l8.7-4.856Z" transform="translate(-180.809 -159.841)"/>
</svg>
